# AST/ASF file generated using VICON BodyLanguage
# -----------------------------------------------
:version 1.10
:name VICON
:units
  mass 1.0
  length 0.45
  angle deg
:documentation
   .ast/.asf automatically generated from VICON data using
   VICON BodyBuilder and BodyLanguage model FoxedUp or BRILLIANT.MOD
:root
   order TX TY TZ RX RY RZ
   axis XYZ
   position 0 0 0  
   orientation 0 0 0 
:bonedata
  begin
     id 1 
     name lhipjoint
     direction 0.558404 -0.748506 0.357664 
     length 2.4234 
     axis 0 0 0  XYZ
  end
  begin
     id 2 
     name lfemur
     direction 0.34202 -0.939693 0  
     length 7.14567  
     axis 0 0 20  XYZ
    dof rx ry rz
    limits (-160.0 20.0)
           (-70.0 70.0)
           (-60.0 70.0)
  end
  begin
     id 3 
     name ltibia
     direction 0.34202 -0.939693 0   
     length 8.13956   
     axis 0 0 20   XYZ
    dof rx
    limits (-10.0 170.0)
  end
  begin
     id 4 
     name lfoot
     direction 0.0791314 -0.217412 0.972867   
     length 2.00134   
     axis -90 7.62852e-016 20   XYZ
    dof rx rz
    limits (-45.0 90.0)
           (-70.0 20.0)
  end
  begin
     id 5 
     name ltoes
     direction 1.53547e-011 -4.21922e-011 1   
     length 1.00735   
     axis -90 7.62852e-016 20   XYZ
    dof rx
    limits (-90.0 20.0)
  end
  begin
     id 6 
     name rhipjoint
     direction -0.496392 -0.78327 0.374276   
     length 2.31584  
     axis 0 0 0  XYZ 
  end
  begin
     id 7 
     name rfemur
     direction -0.34202 -0.939693 0   
     length 7.47417   
     axis 0 0 -20   XYZ
    dof rx ry rz
    limits (-160.0 20.0)
           (-70.0 70.0)
           (-70.0 60.0)
  end
  begin
     id 8 
     name rtibia
     direction -0.34202 -0.939693 0   
     length 7.69071   
     axis 0 0 -20   XYZ
    dof rx
    limits (-10.0 170.0)
 end
 begin
     id 9 
     name rfoot
     direction -0.103069 -0.28318 0.953512   
     length 2.16135  
     axis -90 -7.62852e-016 -20   XYZ
    dof rx rz
    limits (-45.0 90.0)
           (-20.0 70.0)
  end
  begin
     id 10 
     name rtoes
     direction -1.53581e-011 -4.21904e-011 1   
     length 1.07867   
     axis -90 -7.62852e-016 -20   XYZ
    dof rx
    limits (-90.0 20.0)
  end
  begin
     id 11 
     name lowerback
     direction -0.0258961 0.994776 -0.0987407   
     length 2.19412   
     axis 0 0 0   XYZ
    dof rx ry rz
    limits (-20.0 45.0)
           (-30.0 30.0)
           (-30.0 30.0)
  end
  begin
     id 12 
     name upperback
     direction 0.0402454 0.999185 0.00320666   
     length 2.18445   
     axis 0 0 0   XYZ
    dof rx ry rz
    limits (-20.0 45.0)
           (-30.0 30.0)
           (-30.0 30.0)
  end
  begin
     id 13 
     name thorax
     direction 0.0519376 0.997415 0.0496558   
     length 2.21487   
     axis 0 0 0   XYZ
    dof rx ry rz
    limits (-20.0 45.0)
           (-30.0 30.0)
           (-30.0 30.0)
  end
  begin
     id 14 
     name lowerneck
     direction -0.0921276 0.983211 0.157506   
     length 1.61201   
     axis 0 0 0   XYZ
    dof rx ry rz
    limits (-20.0 45.0)
           (-30.0 30.0)
           (-30.0 30.0)
  end
  begin
     id 15 
     name upperneck
     direction 0.0820814 0.98162 -0.172292   
     length 1.65275   
     axis 0 0 0   XYZ
    dof rx ry rz
    limits (-20.0 45.0)
           (-30.0 30.0)
           (-30.0 30.0)
  end
  begin
     id 16
     name head
     direction 0.0336554 0.996413 -0.0776455  
     length 1.66415  
     axis 0 0 0   XYZ
    dof rx ry rz
    limits (-20.0 45.0)
           (-30.0 30.0)
           (-30.0 30.0)
  end
  begin
     id 17 
     name lclavicle
     direction 0.94696 0.284418 -0.149576  
     length 3.41447  
     axis 0 0 0   XYZ
    dof ry rz
    limits (-20.0 10.0)
           (0.0 20.0)
  end
  begin
     id 18 
     name lhumerus
     direction 1 -0.000130264 -9.81312e-005   
     length 5.19964   
     axis 180 -30 -90   XYZ
    dof rx ry rz
    limits (-60.0 90.0)
           (-90.0 90.0)
           (-90.0 90.0)
  end
  begin
     id 19
     name lradius
     direction 1 -4.48961e-011 1.43854e-026   
     length 3.32189   
     axis 180 -30 -90   XYZ
    dof rx
    limits (-10.0 170.0)
  end
  begin
     id 20
     name lwrist
     direction 1 -4.48958e-011 3.1502e-026   
     length 1.66095   
     axis -1.97692e-014 90 90   XYZ
    dof ry
    limits (-180.0 0.0)
 end
  begin
     id 21 
     name lhand
     direction 1 -4.48927e-011 6.3004e-026   
     length 0.645616   
     axis -4.02019e-014 90 90   XYZ
    dof rx rz
    limits (-90.0 90.0)
           (-45.0 45.0)
  end
  begin
     id 22 
     name lfingers
     direction 1 -4.4904e-011 1.26008e-025   
     length 0.520512   
     axis -8.04039e-014 90 90   XYZ
    dof rx
    limits (0.0 90.0)
  end
  begin
     id 23
     name lthumb
     direction 0.707107 -6.34947e-011 0.707107   
     length 0.747354   
     axis -90 45 2.85299e-015   XYZ
    dof rx rz
    limits (-45.0 45.0)
           (-45.0 45.0)
  end
  begin
     id 24 
     name rclavicle
     direction -0.909391 0.383475 -0.161107   
     length 3.25176  
     axis 0 0 0   XYZ 
    dof ry rz
    limits (-10.0 20.0)
           (-20.0 0.0)
  end
  begin
     id 25 
     name rhumerus
     direction -1 -4.48965e-011 -1.81384e-027  
     length 5.6595   
     axis 180 30 90   XYZ
    dof rx ry rz
    limits (-90.0 60.0)
           (-90.0 90.0)
           (-90.0 90.0)
  end
  begin
     id 26 
     name rradius
     direction -1 -4.48996e-011 -8.09397e-027   
     length 3.37604   
     axis 180 30 90   XYZ
    dof rx
    limits (-10.0 170.0)
  end
  begin
     id 27 
     name rwrist
     direction -1 -4.48927e-011 -1.56669e-026   
     length 1.68802   
     axis 1.21142e-014 -90 -90   XYZ
    dof ry
    limits (-180.0 0.0)
  end
  begin
     id 28
     name rhand
     direction -1 -4.48912e-011 -3.13339e-026   
     length 0.824702   
     axis 1.99937e-014 -90 -90   XYZ
    dof rx rz
    limits (-90.0 90.0)
           (-45.0 45.0)
  end
  begin
     id 29
     name rfingers
     direction -1 -4.49011e-011 -6.26677e-026   
     length 0.664896   
     axis 3.99874e-014 -90 -90   XYZ
    dof rx
    limits (0.0 90.0)
  end
  begin
     id 30
     name rthumb
     direction -0.707107 -6.34931e-011 0.707107   
     length 0.954662   
     axis -90 -45 -2.85299e-015   XYZ
    dof rx rz
    limits (-45.0 45.0)
           (-45.0 45.0)
  end
:hierarchy
  begin
    root lhipjoint rhipjoint lowerback
    lhipjoint lfemur
    lfemur ltibia
    ltibia lfoot
    lfoot ltoes
    rhipjoint rfemur
    rfemur rtibia
    rtibia rfoot
    rfoot rtoes
    lowerback upperback
    upperback thorax
    thorax lowerneck lclavicle rclavicle
    lowerneck upperneck
    upperneck head
    lclavicle lhumerus
    lhumerus lradius
    lradius lwrist
    lwrist lhand lthumb
    lhand lfingers
    rclavicle rhumerus
    rhumerus rradius
    rradius rwrist
    rwrist rhand rthumb
    rhand rfingers
  end

#!OML:ASF F:\VICON\USERDATA\INSTALL\rory3\rory3.ASF
:FULLY-SPECIFIED
:DEGREES
26
root 9.5615 17.7407 -14.09 2.95154 -36.3242 -4.87856
lowerback 1.58141 -0.710398 -2.23986
upperback -1.15861 -0.948366 4.01689
thorax -1.97683 -0.421774 5.44725
lowerneck -9.94745 -9.17948 -19.356
upperneck 23.9106 -12.6513 12.6354
head 11.5107 -6.3571 6.09477
rclavicle 8.25329e-014 -2.46493e-014
rhumerus -36.2395 -17.8112 -68.7067
rradius 28.1338
rwrist -11.499
rhand -11.2247 16.8106
rfingers 7.12502
rthumb 14.8041 -12.6407
lclavicle 8.25329e-014 -2.46493e-014
lhumerus -30.7361 3.00946 86.2439
lradius 24.8424
lwrist -13.4277
lhand -0.0308389 31.1726
lfingers 7.12502
lthumb 25.5608 59.4775
rfemur -12.816 7.39558 15.5585
rtibia 34.9932
rfoot -17.8889 -7.01566
rtoes 8.40627
lfemur -7.0209 -0.367864 -17.8154
ltibia 34.704
lfoot -24.6701 13.0081
ltoes 1.6197
27
root 9.56164 17.7404 -14.0882 2.87589 -36.2504 -4.74863
lowerback 1.4346 -0.620386 -2.26466
upperback -1.05189 -0.830859 3.88303
thorax -1.7985 -0.368413 5.31324
lowerneck -9.93665 -9.34558 -19.2086
upperneck 23.7586 -12.8877 12.5741
head 11.4801 -6.45312 6.00005
rclavicle 8.30547e-014 1.03368e-014
rhumerus -36.1927 -17.6424 -69.0707
rradius 28.3335
rwrist -12.0628
rhand -11.407 16.6934
rfingers 7.12502
rthumb 14.6284 -12.7706
lclavicle 8.30547e-014 1.03368e-014
lhumerus -30.4299 2.69164 86.2309
lradius 24.6574
lwrist -13.5183
lhand -0.218126 30.9255
lfingers 7.12502
lthumb 25.3814 59.2561
rfemur -12.8079 7.43399 15.4456
rtibia 35.0136
rfoot -17.9091 -7.06596
rtoes 8.37553
lfemur -7.01259 -0.442525 -17.9351
ltibia 34.6681
lfoot -24.6855 12.9431
ltoes 2.09973
28
root 9.56276 17.7401 -14.0863 2.70717 -36.1571 -4.49418
lowerback 1.26234 -0.529161 -2.33065
upperback -0.904557 -0.713078 3.66381
thorax -1.56419 -0.316318 5.11346
lowerneck -9.90504 -9.52274 -18.9724
upperneck 23.5296 -13.1736 12.5865
head 11.4229 -6.55696 5.90994
rclavicle 4.91619e-014 8.34896e-015
rhumerus -36.1268 -18.026 -69.3173
rradius 28.4546
rwrist -12.4374
rhand -11.3633 16.6419
rfingers 7.12502
rthumb 14.6705 -12.8191
lclavicle 4.91619e-014 8.34896e-015
lhumerus -30.1255 2.43309 86.1387
lradius 24.5395
lwrist -13.5293
lhand -0.84889 30.6976
lfingers 7.12502
lthumb 24.777 59.1127
rfemur -12.7542 7.41825 15.2042
rtibia 35.0191
rfoot -18.0108 -7.08157
rtoes 8.57273
lfemur -6.98166 -0.558829 -18.1855
ltibia 34.6375
lfoot -24.6852 12.9378
ltoes 2.3583
29
root 9.56432 17.74 -14.0842 2.64002 -36.0535 -4.41545
lowerback 1.17468 -0.515442 -2.27878
upperback -0.852234 -0.694601 3.56509
thorax -1.46455 -0.310705 4.97824
lowerneck -9.91319 -9.58921 -18.9446
upperneck 23.5024 -13.2797 12.6191
head 11.4347 -6.59839 5.89796
rclavicle -6.28657e-015 -4.8901e-014
rhumerus -36.0868 -18.4515 -69.3676
rradius 28.3743
rwrist -12.3587
rhand -10.9548 16.7441
rfingers 7.12502
rthumb 15.064 -12.6878
lclavicle -6.28657e-015 -4.8901e-014
lhumerus -30.0041 2.26073 86.121
lradius 24.3934
lwrist -13.3756
lhand -1.51547 30.4989
lfingers 7.12502
lthumb 24.138 59.0003
rfemur -12.6962 7.26228 15.1166
rtibia 35.0121
rfoot -18.0801 -7.0532
rtoes 8.50146
lfemur -6.96783 -0.601928 -18.2603
ltibia 34.6293
lfoot -24.654 12.9317
ltoes 1.9092
30
root 9.56505 17.7398 -14.085 2.73517 -35.9995 -4.61755
lowerback 1.22088 -0.489277 -2.06254
upperback -0.889189 -0.655324 3.57725
thorax -1.53462 -0.291434 4.8678
lowerneck -9.951 -9.61091 -19.0384
upperneck 23.6222 -13.3173 12.6794
head 11.5077 -6.61834 5.93171
rclavicle 3.19795e-014 4.77083e-015
rhumerus -36.1168 -18.8205 -69.3097
rradius 28.21
rwrist -12.0135
rhand -10.4773 16.91
rfingers 7.12502
rthumb 15.5239 -12.4869
lclavicle 3.19795e-014 4.77083e-015
lhumerus -30.1031 2.37639 86.0648
lradius 24.316
lwrist -13.6363
lhand -1.80613 30.1002
lfingers 7.12502
lthumb 23.8593 58.6383
rfemur -12.6569 7.20043 15.3041
rtibia 34.9856
rfoot -18.0359 -7.03832
rtoes 8.53724
lfemur -6.9814 -0.585903 -18.0566
ltibia 34.6538
lfoot -24.6657 12.8232
ltoes 1.94161
31
root 9.56622 17.7389 -14.0865 2.7834 -35.8967 -4.81526
lowerback 1.28057 -0.456074 -1.85206
upperback -0.86398 -0.607683 3.56762
thorax -1.54895 -0.270074 4.7372
lowerneck -9.86809 -9.64999 -19.0806
upperneck 23.4704 -13.4076 12.8401
head 11.467 -6.64872 5.98392
rclavicle -6.55989e-014 -4.77083e-015
rhumerus -36.1066 -19.236 -69.3041
rradius 28.108
rwrist -11.5756
rhand -10.3489 17.0232
rfingers 7.12502
rthumb 15.6476 -12.364
lclavicle -6.55989e-014 -4.77083e-015
lhumerus -30.2152 2.83347 85.875
lradius 24.4235
lwrist -14.3507
lhand -1.89451 29.6085
lfingers 7.12502
lthumb 23.7746 58.1577
rfemur -12.5457 7.23121 15.5121
rtibia 34.9375
rfoot -17.9665 -7.12988
rtoes 8.41191
lfemur -6.95417 -0.607987 -17.8626
ltibia 34.6999
lfoot -24.6205 12.7975
ltoes 1.87033
